<svg width="25px" height="22px" viewBox="0 0 25 22" version="1.1" xmlns="http://www.w3.org/2000/svg" xmlns:xlink="http://www.w3.org/1999/xlink">
	<defs>
	</defs>
	<g id="Page-1" stroke="none" stroke-width="1" fill="none" fill-rule="evenodd">
		<g id="Flat---Outline" transform="translate(-400.000000, -202.000000)" fill="#000000">
			<g id="flip-camera" transform="translate(400.000000, 202.000000)">
				<path d="M19.8535,12.1506 C20.0485,12.3456 20.0485,12.6626 19.8535,12.8576 C19.7555,12.9556 19.6275,13.0046 19.4995,13.0046 C19.3725,13.0046 19.2445,12.9556 19.1465,12.8576 L17.9905,11.7016 C17.8845,14.6416 15.4665,17.0046 12.4995,17.0046 C10.7815,17.0046 9.1365,16.1816 8.1005,14.8046 C7.9345,14.5846 7.9785,14.2706 8.1995,14.1046 C8.4205,13.9376 8.7335,13.9826 8.8995,14.2036 C9.7475,15.3316 11.0935,16.0046 12.4995,16.0046 C14.9025,16.0046 16.8535,14.1066 16.9765,11.7346 L15.8535,12.8576 C15.6585,13.0526 15.3415,13.0526 15.1465,12.8576 C14.9515,12.6626 14.9515,12.3456 15.1465,12.1506 L17.1455,10.1516 C17.1925,10.1046 17.2475,10.0676 17.3095,10.0426 C17.4315,9.9926 17.5685,9.9926 17.6905,10.0426 C17.7525,10.0676 17.8075,10.1046 17.8535,10.1516 L19.8535,12.1506 Z M7.6905,12.9656 C7.6295,12.9906 7.5645,13.0046 7.4995,13.0046 C7.4355,13.0046 7.3705,12.9906 7.3095,12.9656 C7.2475,12.9406 7.1925,12.9036 7.1455,12.8566 L5.1465,10.8576 C4.9515,10.6626 4.9515,10.3456 5.1465,10.1506 C5.3415,9.9556 5.6585,9.9556 5.8535,10.1506 L7.0095,11.3066 C7.1155,8.3666 9.5335,6.0046 12.4995,6.0046 C14.2185,6.0046 15.8635,6.8266 16.8995,8.2036 C17.0655,8.4236 17.0215,8.7376 16.8005,8.9036 C16.5795,9.0726 16.2665,9.0266 16.1005,8.8046 C15.2525,7.6766 13.9065,7.0046 12.4995,7.0046 C10.0975,7.0046 8.1455,8.9016 8.0235,11.2736 L9.1465,10.1506 C9.3415,9.9556 9.6585,9.9556 9.8535,10.1506 C10.0485,10.3456 10.0485,10.6626 9.8535,10.8576 L7.8535,12.8566 C7.8075,12.9036 7.7525,12.9406 7.6905,12.9656 L7.6905,12.9656 Z M23.9995,18.5046 C23.9995,19.3316 23.3275,20.0046 22.4995,20.0046 L2.4995,20.0046 C1.6725,20.0046 0.9995,19.3316 0.9995,18.5046 L0.9995,6.5046 C0.9995,5.6766 1.6725,5.0046 2.4995,5.0046 L3.4165,5.0046 C5.5845,5.0046 6.5225,3.9746 7.4295,2.9796 C8.3565,1.9636 9.2315,1.0046 11.5835,1.0046 L13.4165,1.0046 C15.7685,1.0046 16.6435,1.9636 17.5705,2.9796 C18.4775,3.9746 19.4155,5.0046 21.5835,5.0046 L22.4995,5.0046 C23.3275,5.0046 23.9995,5.6766 23.9995,6.5046 L23.9995,18.5046 Z M22.4995,4.0046 L21.5835,4.0046 C19.8575,4.0046 19.1395,3.2166 18.3095,2.3056 C17.3255,1.2266 16.2095,0.0046 13.4165,0.0046 L11.5835,0.0046 C8.7905,0.0046 7.6745,1.2266 6.6905,2.3056 C5.8605,3.2166 5.1425,4.0046 3.4165,4.0046 L2.4995,4.0046 C1.1215,4.0046 -0.0005,5.1256 -0.0005,6.5046 L-0.0005,18.5046 C-0.0005,19.8826 1.1215,21.0046 2.4995,21.0046 L22.4995,21.0046 C23.8785,21.0046 24.9995,19.8826 24.9995,18.5046 L24.9995,6.5046 C24.9995,5.1256 23.8785,4.0046 22.4995,4.0046 L22.4995,4.0046 Z" id="Fill-72">
				</path>
			</g>
		</g>
	</g>
</svg>
