<?xml version="1.0" encoding="UTF-8"?>
<svg width="23px" height="21px" viewBox="0 0 23 21" version="1.1" xmlns="http://www.w3.org/2000/svg" xmlns:xlink="http://www.w3.org/1999/xlink">
	<defs>
	</defs>
	<g id="Page-1" stroke="none" stroke-width="1" fill="none" fill-rule="evenodd">
		<g id="Full-Color" transform="translate(-501.000000, -252.000000)">
			<g id="unordered-list" transform="translate(501.000000, 252.000000)">
				<path d="M2.5,4.5031 C3.604,4.5031 4.5,3.6071 4.5,2.5031 C4.5,1.3991 3.604,0.5031 2.5,0.5031 C1.396,0.5031 0.5,1.3991 0.5,2.5031 C0.5,3.6071 1.396,4.5031 2.5,4.5031 M2.5,8.5031 C1.396,8.5031 0.5,9.3991 0.5,10.5031 C0.5,11.6071 1.396,12.5031 2.5,12.5031 C3.604,12.5031 4.5,11.6071 4.5,10.5031 C4.5,9.3991 3.604,8.5031 2.5,8.5031 M4.5,18.5031 C4.5,19.6071 3.604,20.5031 2.5,20.5031 C1.396,20.5031 0.5,19.6071 0.5,18.5031 C0.5,17.3991 1.396,16.5031 2.5,16.5031 C3.604,16.5031 4.5,17.3991 4.5,18.5031" id="Fill-79" fill="#59E1EF">
				</path>
				<path d="M1,2.5031 C1,3.3301 1.673,4.0031 2.5,4.0031 C3.327,4.0031 4,3.3301 4,2.5031 C4,1.6761 3.327,1.0031 2.5,1.0031 C1.673,1.0031 1,1.6761 1,2.5031 M0,2.5031 C0,1.1241 1.122,0.0031 2.5,0.0031 C3.878,0.0031 5,1.1241 5,2.5031 C5,3.8821 3.878,5.0031 2.5,5.0031 C1.122,5.0031 0,3.8821 0,2.5031 M1,10.5031 C1,11.3301 1.673,12.0031 2.5,12.0031 C3.327,12.0031 4,11.3301 4,10.5031 C4,9.6761 3.327,9.0031 2.5,9.0031 C1.673,9.0031 1,9.6761 1,10.5031 M0,10.5031 C0,9.1241 1.122,8.0031 2.5,8.0031 C3.878,8.0031 5,9.1241 5,10.5031 C5,11.8821 3.878,13.0031 2.5,13.0031 C1.122,13.0031 0,11.8821 0,10.5031 M1,18.5031 C1,19.3301 1.673,20.0031 2.5,20.0031 C3.327,20.0031 4,19.3301 4,18.5031 C4,17.6761 3.327,17.0031 2.5,17.0031 C1.673,17.0031 1,17.6761 1,18.5031 M0,18.5031 C0,17.1241 1.122,16.0031 2.5,16.0031 C3.878,16.0031 5,17.1241 5,18.5031 C5,19.8821 3.878,21.0031 2.5,21.0031 C1.122,21.0031 0,19.8821 0,18.5031 M6.5,19.0031 L22.5,19.0031 C22.776,19.0031 23,18.7791 23,18.5031 C23,18.2271 22.776,18.0031 22.5,18.0031 L6.5,18.0031 C6.224,18.0031 6,18.2271 6,18.5031 C6,18.7791 6.224,19.0031 6.5,19.0031 M6.5,11.0031 L22.5,11.0031 C22.776,11.0031 23,10.7791 23,10.5031 C23,10.2271 22.776,10.0031 22.5,10.0031 L6.5,10.0031 C6.224,10.0031 6,10.2271 6,10.5031 C6,10.7791 6.224,11.0031 6.5,11.0031 M6,2.5031 C6,2.2271 6.224,2.0031 6.5,2.0031 L22.5,2.0031 C22.776,2.0031 23,2.2271 23,2.5031 C23,2.7791 22.776,3.0031 22.5,3.0031 L6.5,3.0031 C6.224,3.0031 6,2.7791 6,2.5031" id="Fill-221" fill="#000000">
				</path>
				<path d="M2.5,13.0031 C1.121,13.0031 0,11.8821 0,10.5031 C0,10.3081 0.027,10.1091 0.086,9.8801 C0.142,9.6581 0.341,9.5041 0.569,9.5031 L0.57,9.5031 C0.798,9.5031 0.997,9.6571 1.055,9.8771 C1.227,10.5401 1.821,11.0031 2.5,11.0031 C3.179,11.0031 3.773,10.5401 3.945,9.8771 C4.003,9.6571 4.202,9.5031 4.43,9.5031 L4.431,9.5031 C4.659,9.5041 4.858,9.6581 4.914,9.8801 C4.973,10.1091 5,10.3081 5,10.5031 C5,11.8821 3.879,13.0031 2.5,13.0031 Z M2.5,21.0031 C1.121,21.0031 0,19.8821 0,18.5031 C0,18.3081 0.027,18.1091 0.086,17.8801 C0.142,17.6581 0.341,17.5041 0.569,17.5031 L0.57,17.5031 C0.798,17.5031 0.997,17.6571 1.055,17.8771 C1.227,18.5401 1.821,19.0031 2.5,19.0031 C3.179,19.0031 3.773,18.5401 3.945,17.8771 C4.003,17.6571 4.202,17.5031 4.43,17.5031 L4.431,17.5031 C4.659,17.5041 4.858,17.6581 4.914,17.8801 C4.973,18.1091 5,18.3081 5,18.5031 C5,19.8821 3.879,21.0031 2.5,21.0031 Z M2.5,5.0031 C1.121,5.0031 0,3.8821 0,2.5031 C0,2.3081 0.027,2.1091 0.086,1.8801 C0.142,1.6581 0.341,1.5041 0.569,1.5031 L0.57,1.5031 C0.798,1.5031 0.997,1.6571 1.055,1.8771 C1.227,2.5401 1.821,3.0031 2.5,3.0031 C3.179,3.0031 3.773,2.5401 3.945,1.8771 C4.003,1.6571 4.202,1.5031 4.43,1.5031 L4.431,1.5031 C4.659,1.5041 4.858,1.6581 4.914,1.8801 C4.973,2.1091 5,2.3081 5,2.5031 C5,3.8821 3.879,5.0031 2.5,5.0031 Z" id="Combined-Shape" fill="#000000" opacity="0.119999997">
				</path>
			</g>
		</g>
	</g>
</svg>
